<?xml version="1.0" encoding="utf-8"?>
<!-- Generator: Adobe Illustrator 21.1.0, SVG Export Plug-In . SVG Version: 6.00 Build 0)  -->
<svg version="1.1" xmlns="http://www.w3.org/2000/svg" xmlns:xlink="http://www.w3.org/1999/xlink" x="0px" y="0px"
	 viewBox="0 0 1000 1000" style="enable-background:new 0 0 1000 1000;" xml:space="preserve">
<style type="text/css">
	.st0{display:none;}
	.st1{display:inline;}
	.st2{fill:#C1272D;}
	.st3{fill-rule:evenodd;clip-rule:evenodd;fill:#FFFFFF;}
</style>
<g id="Layer_1" class="st0">
	<g class="st1">
		<g>
			<path class="st2" d="M85.3,441.4L76.1,503H51.3l22.2-148.4h51.1c15.9,0,28,3.8,36.2,11.4c8.2,7.6,11.3,18.2,9.3,31.9
				c-1.2,8-4.2,14.7-9,20.1c-4.8,5.5-11.2,9.9-19.5,13.2c7.7,2.7,13.1,7.1,16,13.1c2.9,6,3.7,13.3,2.5,21.9l-1.8,12.3
				c-0.7,4.4-0.8,8.7-0.3,12.8c0.5,4.1,1.8,7.3,4,9.4l-0.3,2.3h-25.5c-2.3-2.2-3.5-5.7-3.6-10.2c-0.1-4.6,0.2-9.4,0.9-14.5l1.8-11.9
				c1.2-7.9-0.1-14-3.7-18.3c-3.6-4.3-9.3-6.5-17-6.5H85.3z M88.2,421.6h25.1c9.5,0,16.9-1.9,22.3-5.8c5.3-3.9,8.6-9.6,9.7-17.3
				c1.1-7.7-0.3-13.7-4.1-17.8c-3.8-4.1-10.3-6.2-19.6-6.2H95.4L88.2,421.6z"/>
			<path class="st2" d="M319.7,354.6l-14.6,97.7c-2.6,17.2-10,30.3-22,39.3c-12,9-26.7,13.5-44.1,13.5c-16.2,0-29.1-4.7-38.6-14.1
				c-9.5-9.4-13-22.3-10.5-38.7l14.6-97.7h24.8l-14.6,97.7c-1.7,10.9,0,19.2,5,24.7c5,5.5,12.5,8.3,22.3,8.3
				c9.6,0,18.1-2.9,25.2-8.7c7.2-5.8,11.6-13.9,13.2-24.4l14.6-97.7H319.7z"/>
			<path class="st2" d="M449.4,374.5h-45.9L384.2,503h-24.8l19.3-128.5h-45.2l3-19.9h115.8L449.4,374.5z"/>
			<path class="st2" d="M559.1,482.9c-5,5.8-12.2,10.9-21.9,15.4c-9.6,4.5-21.5,6.8-35.6,6.8c-16.9,0-30.4-5.7-40.3-17.1
				c-10-11.4-13.6-26-10.9-43.7l4.7-31c2.8-18.6,10.4-33.4,22.9-44.4c12.5-11,27.5-16.5,44.8-16.5c16.6,0,29.3,4.4,37.9,13.2
				c8.6,8.8,11.7,20.1,9.3,33.9l-0.2,0.6h-23.6c1.3-8.6-0.3-15.4-4.6-20.4c-4.4-5-11.5-7.4-21.4-7.4c-9.9,0-18.6,3.9-26.2,11.6
				c-7.6,7.7-12.4,17.5-14.1,29.2l-4.7,31.2c-1.8,12.4-0.1,22.4,5.4,29.9c5.4,7.5,13.4,11.2,24,11.2c7.5,0,13.9-0.9,19.1-2.8
				c5.2-1.8,9.1-4,11.7-6.5l4.6-30.7h-31.1l2.8-18.6h55.9L559.1,482.9z"/>
			<path class="st2" d="M679.2,436.2h-58.1l-7,47h68.5l-3,19.8h-93.3l22.2-148.4h92.5l-3,19.9h-67.9l-6.2,41.9h58.2L679.2,436.2z"/>
			<path class="st2" d="M735.9,441.4l-9.2,61.6h-24.8l22.2-148.4h51.1c15.9,0,28,3.8,36.2,11.4c8.2,7.6,11.3,18.2,9.3,31.9
				c-1.2,8-4.2,14.7-9,20.1c-4.8,5.5-11.2,9.9-19.5,13.2c7.7,2.7,13.1,7.1,16,13.1c2.9,6,3.7,13.3,2.5,21.9l-1.8,12.3
				c-0.7,4.4-0.8,8.7-0.3,12.8c0.5,4.1,1.8,7.3,4,9.4l-0.3,2.3h-25.5c-2.3-2.2-3.5-5.7-3.6-10.2c-0.1-4.6,0.2-9.4,0.9-14.5l1.8-11.9
				c1.2-7.9-0.1-14-3.7-18.3c-3.6-4.3-9.3-6.5-17-6.5H735.9z M738.8,421.6h25.1c9.5,0,16.9-1.9,22.3-5.8c5.3-3.9,8.6-9.6,9.7-17.3
				c1.1-7.7-0.3-13.7-4.1-17.8c-3.8-4.1-10.3-6.2-19.6-6.2H746L738.8,421.6z"/>
			<path class="st2" d="M921.1,467.8c1-7-0.6-12.5-4.8-16.6c-4.2-4-12.3-8-24.2-12c-16.2-5.2-28.2-11.4-35.8-18.9
				c-7.6-7.4-10.4-17.6-8.5-30.5c1.8-11.8,7.6-20.9,17.5-27.6c9.9-6.6,22-9.9,36.4-9.9c16.3,0,29,4,38.1,12.1
				c9.1,8.1,12.4,19.2,10,33.3l-0.2,0.6h-23.9c1.1-7.7-0.9-14-5.8-18.9c-5-4.9-12.1-7.3-21.3-7.3c-6.8,0-12.7,1.7-17.6,5
				c-4.9,3.3-7.7,7.5-8.4,12.4c-1.2,7.2,0.3,12.6,4.4,16.3c4.1,3.6,12.7,7.7,26,12.3c16,5.2,27.6,11.4,34.8,18.8
				c7.2,7.3,9.9,17.5,7.9,30.6c-1.8,12.3-7.7,21.6-17.7,28c-10,6.4-22.5,9.5-37.4,9.5c-16,0-29.5-3.7-40.5-11.1
				c-10.9-7.4-15.1-18.8-12.3-34.4l0.2-0.6h23.7c-1.4,9.6,1.1,16.4,7.6,20.3c6.5,4,14.6,6,24.2,6c6.9,0,13-1.6,18.3-4.9
				C917.2,477.1,920.3,472.9,921.1,467.8z"/>
		</g>
		<g>
			<path d="M108,616.1h0.5l29.1-83.4h29.6v113.2h-22.7v-77.3l-0.5-0.1l-28,77.4h-15.4l-28-77.5l-0.5,0.1v77.4H49.4V532.7h29.8
				L108,616.1z"/>
			<path d="M279.5,599.5c0,13.9-4.4,25.4-13.1,34.5c-8.8,9-20.2,13.6-34.2,13.6c-14,0-25.3-4.5-34.1-13.6
				c-8.7-9.1-13.1-20.6-13.1-34.4v-20.4c0-13.8,4.3-25.3,13-34.4c8.7-9.1,20-13.6,33.9-13.6c14,0,25.5,4.5,34.3,13.6
				c8.8,9.1,13.2,20.6,13.2,34.4V599.5z M256.9,579c0-8.8-2.2-16-6.6-21.7c-4.4-5.6-10.5-8.5-18.3-8.5c-7.7,0-13.6,2.8-17.9,8.5
				c-4.3,5.7-6.4,12.9-6.4,21.7v20.5c0,9,2.1,16.3,6.5,21.9c4.3,5.7,10.3,8.5,18,8.5c7.8,0,13.8-2.8,18.2-8.5
				c4.4-5.6,6.5-13,6.5-21.9V579z"/>
			<path d="M297.5,645.9V532.7h37.1c13.3,0,23.7,2.6,31.2,7.8c7.5,5.2,11.2,12.9,11.2,23.2c0,5.2-1.3,9.8-4,13.9
				c-2.7,4.1-6.6,7.2-11.8,9.3c7,1.3,12.4,4.4,15.9,9.2c3.6,4.8,5.4,10.4,5.4,16.9c0,10.8-3.6,19-10.7,24.6
				c-7.2,5.6-17.3,8.4-30.4,8.4H297.5z M320.2,580.1h15.2c6.1,0,10.7-1.2,14-3.7c3.3-2.5,4.9-6.1,4.9-10.9c0-5.2-1.6-9.1-4.9-11.6
				c-3.3-2.5-8.2-3.7-14.7-3.7h-14.4V580.1z M320.2,595.9v32.7h21.1c6,0,10.6-1.3,13.8-3.9c3.2-2.6,4.7-6.5,4.7-11.6
				c0-5.5-1.6-9.7-4.7-12.7c-3.1-3-7.8-4.4-14.1-4.4H320.2z"/>
			<path d="M423.2,645.9h-22.7V532.7h22.7V645.9z"/>
			<path d="M468.4,628.5h50.7v17.4h-73.4V532.7h22.7V628.5z"/>
			<path d="M598.9,596.2h-42v32.3h49.9v17.4h-72.6V532.7h72.5v17.5h-49.8v28.5h42V596.2z"/>
			<path d="M721.4,621.5h-36.7l-7.6,24.4h-23.7l38.2-113.2h23.2l38,113.2h-23.7L721.4,621.5z M690.3,603.7h25.6l-12.5-39.9h-0.5
				L690.3,603.7z"/>
			<path d="M786.4,604.9v41.1h-22.7V532.7H807c13,0,23.2,3.3,30.7,10c7.5,6.6,11.2,15.4,11.2,26.2c0,10.8-3.7,19.5-11.2,26.1
				c-7.5,6.6-17.7,9.9-30.7,9.9H786.4z M786.4,587.4H807c6.3,0,11.1-1.7,14.4-5.2c3.3-3.4,4.9-7.8,4.9-13.2c0-5.4-1.6-9.9-4.9-13.5
				c-3.2-3.5-8-5.3-14.4-5.3h-20.6V587.4z"/>
			<path d="M887.9,604.9v41.1h-22.7V532.7h43.3c13,0,23.2,3.3,30.7,10c7.5,6.6,11.2,15.4,11.2,26.2c0,10.8-3.7,19.5-11.2,26.1
				c-7.5,6.6-17.7,9.9-30.7,9.9H887.9z M887.9,587.4h20.6c6.3,0,11.1-1.7,14.4-5.2c3.3-3.4,4.9-7.8,4.9-13.2c0-5.4-1.6-9.9-4.9-13.5
				c-3.2-3.5-8-5.3-14.4-5.3h-20.6V587.4z"/>
		</g>
	</g>
</g>
<g id="Layer_2">
	<g>
		<path class="st3" d="M296,555.4l7-2.1V435.6c0-28.5,0-29.7,9.1-30.6l8.4-0.7v-5h-56.7v5l8.4,0.7c9.1,0.9,9.1,2.1,9.1,30.6v94.8
			c-3.5,4.2-18,18.7-42.2,18.7c-36.2,0-41.8-22.2-41.8-55.6v-57.9c0-28.5,0-29.7,9.1-30.6l8.4-0.7v-5h-56.7v5l8.4,0.7
			c9.1,0.9,9.1,2.1,9.1,30.6v61.6c0,31.7,4,59.5,52.3,59.5c31,0,50.4-14.7,53.7-14.7c3.5,0,5.4,3.3,8.6,6.5L296,555.4z"/>
		<path class="st3" d="M358.6,553.3h64.6v-5l-8.4-0.7c-13.1-0.9-13.1-2.1-13.1-30.6V405.8h12.1c32.9,0,33.4,3.5,38.5,30.6h5.6
			c0-0.9-1.2-32-2.1-37.1h-130c-0.9,5.1-2.1,36.2-2.1,37.1h5.6c5.1-27.1,5.6-30.6,38.5-30.6H380V517c0,28.5,0,29.7-12.8,30.6
			l-8.6,0.7V553.3z"/>
		<path class="st3" d="M601.6,522.6c0-22.7,0-23.9,4.4-24.8l8.4-0.7v-5h-59.3v5l8.4,0.7c16.3,0.9,16.3,2.1,16.3,30.7v17.6
			c-8.2,2.1-18.9,3-27.3,3c-45.7,0-66-37-66-76.8c0-43.6,24-68.8,62.3-68.8c39.9,0,42.9,28.5,45.3,37.8l6.3-1.4
			c-1-11.5-2.3-24.6-3.7-34.5c-6.1-3.7-23.8-9.6-47.6-9.6c-36.9,0-87,18.7-87,81c0,59.5,42,80,88.9,80c25,0,42.8-6.7,51.1-9.3
			C602,547.5,601.6,529.6,601.6,522.6z"/>
		<path class="st3" d="M628.8,553.3h106.9c3.1-12.6,5.7-24.3,7.7-38.7l-5.8-0.9c-4.7,19.1-7,33.1-44.2,33.1c-8.4,0-17-1.4-25.4-3
			v-67.2h20.7c18.2,0,22.3,0.2,23.7,9.8l1.2,7.9h6.2v-42h-6.2l-1.2,7.9c-1.4,9.6-5.6,9.8-23.7,9.8H668v-64.2h19.3
			c32.9,0,33.4,3.5,38.5,28.5l5.6-0.9c0-2.1-1.2-28.9-2.1-34.1H628.8v5l8.4,0.7c9.1,0.9,9.1,2.1,9.1,30.6v81.3
			c0,28.5,0,29.7-9.1,30.6l-8.4,0.7V553.3z"/>
		<path class="st3" d="M761.6,553.3h56.5v-5l-8.4-0.7c-8.9-0.9-8.9-2.1-8.9-30.6v-30.9h8.6c4.9,0,10.7,0,14.5,3
			c3,2.6,8.4,11.5,14.4,22.9l9.3,18c7,12.8,17.7,23.2,33.1,23.2h18v-5c-5.1,0-9.3-0.9-11.7-2.3c-5.8-3.3-16.1-17.1-25.9-34.6
			c-6.3-11.2-14-26.2-17.5-32.7c12.8-6.1,32.2-18.9,32.2-40.7c0-35.5-31.3-38.7-53.4-38.7h-60.9v5l8.4,0.7c9.1,0.9,9.1,2.1,9.1,30.6
			V517c0,28.5,0,29.7-9.1,30.6l-8.4,0.7V553.3z M800.8,408.9c4.7-0.9,9.6-1.9,14.5-1.9c18.2,0,36.1,8.4,36.1,35.7
			c0,26.4-17.7,36.9-37.3,36.9h-13.3V408.9z"/>
		<path class="st3" d="M949.6,457.6c-12.6-7.5-22.6-14.9-22.6-28.7c0-15.6,11.9-25.4,25.4-25.4c26.4,0,30.1,20.3,32.4,32h5.8
			c-0.5-6.8-1.1-23.9-2.3-32.2c-6.1-3.7-17.7-7.5-32.2-7.5c-24.7,0-48.5,11.9-48.5,40.4c0,17.5,12.4,32,25.7,39.2l14.9,8.2
			c18.2,8.2,32.4,19.8,32.4,36.9c0,18.2-11.9,28.7-28,28.7c-32,0-40.6-27.8-43.2-44.6l-7.5,1.9c2.6,16,5.2,32.3,7.5,41.1
			c7.2,4.4,18.4,9.3,36.6,9.3c24.7,0,53.9-12.1,53.9-43.6c0-28-19.1-37.8-37.6-48.3L949.6,457.6z"/>
		<path class="st3" d="M104.5,464.4c2.7,14.8,23.3,52.8,31.2,66.9c17.9,33,63.7,99.6,97.9,97.5l4,0l0,5.4l-6,0.2
			c-48.4,1.9-91.7-52.1-116.9-95.3c-10.2-17.6-20.2-38-29-56.3c-2.2-4.7-5-7.7-8.1-9.6c-4.8-2.5-11-2.5-16.1-2.5c-3,0-11.9,0-16.5,0
			l0,38.9c0,7.1-0.5,24.9,1.4,31.8c1.5,5.5,4.8,6.2,10.3,6.8l9.5,0.8v4.4H0v-4.4l9.5-0.8c5.6-0.6,9-1.3,10.6-6.8
			c2-6.9,1.4-24.7,1.4-31.8v-100c0-7.1,0.5-24.9-1.4-31.8c-1.6-5.5-5-6.2-10.6-6.8L0,370.1v-4.4l45.1,0c39.7,0,93.3-5.7,93.3,50.2
			c0,22.6-15.4,37.3-34.1,46.5C104.3,463.3,104.5,464.4,104.5,464.4z M44.9,464.4c7.1,0.4,14.8-0.2,22-0.2
			c27.6,0,44.5-14.8,44.5-42.4c0-30-17.1-48.5-47.7-48.5c-6.3,0-12.5,1.2-18.7,2.4L44.9,464.4z"/>
	</g>
</g>
</svg>
