<?xml version="1.0" encoding="utf-8"?>
<!-- Generator: Adobe Illustrator 21.1.0, SVG Export Plug-In . SVG Version: 6.00 Build 0)  -->
<svg version="1.1" xmlns="http://www.w3.org/2000/svg" xmlns:xlink="http://www.w3.org/1999/xlink" x="0px" y="0px"
	 viewBox="0 0 1000 1000" style="enable-background:new 0 0 1000 1000;" xml:space="preserve">
<style type="text/css">
	.st0{display:none;}
	.st1{display:inline;}
	.st2{fill:#29ABE2;}
	.st3{fill:#B3B3B3;}
	.st4{fill:#FFFFFF;}
	.st5{fill:none;stroke:#FFFFFF;stroke-width:20;stroke-miterlimit:10;}
	.st6{fill:none;stroke:#FFFFFF;stroke-width:20;stroke-linecap:round;stroke-miterlimit:10;}
</style>
<g id="Layer_1" class="st0">
	<g class="st1">
		<rect x="50" y="50" class="st2" width="900" height="900"/>
		<path class="st3" d="M900,100v800H100V100H900 M1000,0H0v1000h1000V0L1000,0z"/>
	</g>
</g>
<g id="busNavi" class="st0">
	<g class="st1">
		<g>
			<path class="st4" d="M176.9,576.8c-42.3,0-76.8-34.4-76.8-76.8s34.4-76.8,76.8-76.8s76.8,34.4,76.8,76.8S219.2,576.8,176.9,576.8
				z M176.9,455.6c-24.5,0-44.4,19.9-44.4,44.4c0,24.5,19.9,44.4,44.4,44.4s44.4-19.9,44.4-44.4
				C221.3,475.5,201.4,455.6,176.9,455.6z"/>
		</g>
		<g>
			<path class="st4" d="M823.2,576.8c-42.3,0-76.8-34.4-76.8-76.8s34.4-76.8,76.8-76.8c42.3,0,76.8,34.4,76.8,76.8
				S865.6,576.8,823.2,576.8z M823.2,455.6c-24.5,0-44.4,19.9-44.4,44.4c0,24.5,19.9,44.4,44.4,44.4c24.5,0,44.4-19.9,44.4-44.4
				C867.7,475.5,847.7,455.6,823.2,455.6z"/>
		</g>
		<g>
			<path class="st4" d="M500,253.5c-42.3,0-76.8-34.4-76.8-76.8S457.6,100,500,100s76.8,34.4,76.8,76.8S542.3,253.5,500,253.5z
				 M500,132.3c-24.5,0-44.4,19.9-44.4,44.4s19.9,44.4,44.4,44.4c24.5,0,44.4-19.9,44.4-44.4S524.5,132.3,500,132.3z"/>
		</g>
		<g>
			<path class="st4" d="M500,899.9c-42.3,0-76.8-34.4-76.8-76.8c0-42.3,34.4-76.8,76.8-76.8s76.8,34.4,76.8,76.8
				C576.7,865.5,542.3,899.9,500,899.9z M500,778.7c-24.5,0-44.4,19.9-44.4,44.4c0,24.5,19.9,44.4,44.4,44.4
				c24.5,0,44.4-19.9,44.4-44.4C544.4,798.7,524.5,778.7,500,778.7z"/>
		</g>
		<g>
			
				<rect x="122.4" y="291.9" transform="matrix(0.7069 -0.7073 0.7073 0.7069 -127.6088 308.212)" class="st4" width="371.3" height="32.3"/>
		</g>
		<g>
			
				<rect x="292" y="506.3" transform="matrix(0.7072 -0.7071 0.7071 0.7072 -398.9832 420.4756)" class="st4" width="32.3" height="371.3"/>
		</g>
		<path class="st4" d="M500.9,389.7c-42.4,0-76.8,34.4-76.8,76.8c0,42.4,76.8,145.6,76.8,145.6s76.8-103.2,76.8-145.6
			C577.7,424,543.4,389.7,500.9,389.7z M500.9,512.2c-25.7,0-46.5-20.8-46.5-46.5s20.8-46.5,46.5-46.5c25.7,0,46.5,20.8,46.5,46.5
			S526.6,512.2,500.9,512.2z"/>
		<g>
			
				<rect x="506.2" y="675.7" transform="matrix(0.7073 -0.707 0.707 0.7073 -286.5916 691.6984)" class="st4" width="371.4" height="32.3"/>
		</g>
		<g>
			
				<rect x="675.7" y="122.4" transform="matrix(0.7071 -0.7071 0.7071 0.7071 -15.1995 579.4868)" class="st4" width="32.3" height="371.4"/>
		</g>
	</g>
</g>
<g id="uniInte" class="st0">
	<g class="st1">
		<circle class="st5" cx="500" cy="500" r="87.9"/>
		<line class="st6" x1="500" y1="327.4" x2="500" y2="375.7"/>
		<line class="st6" x1="500" y1="672.6" x2="500" y2="624.3"/>
		<line class="st6" x1="378" y1="622" x2="412.1" y2="587.9"/>
		<line class="st6" x1="378" y1="378" x2="412.1" y2="412.1"/>
		<line class="st6" x1="622" y1="378" x2="587.9" y2="412.1"/>
		<line class="st6" x1="672.6" y1="500" x2="624.3" y2="500"/>
		<line class="st6" x1="327.4" y1="500" x2="375.7" y2="500"/>
		<line class="st6" x1="622" y1="622" x2="587.9" y2="587.9"/>
	</g>
	<g class="st1">
		<path class="st4" d="M522.6,500c0-12.5-10.1-22.6-22.6-22.6v45.1C512.5,522.6,522.6,512.5,522.6,500z"/>
		<path class="st4" d="M500,416.2v6.1h11.8c2.9,0,5.2,2.3,5.2,5.2v17.8c0,0.3,0,0.5-0.1,0.8c3.2,1,6.2,2.3,9.1,3.8
			c0.2-0.2,0.3-0.4,0.5-0.6l12.6-12.6c2-2,5.3-2,7.4,0l16.8,16.8c2,2,2,5.3,0,7.4l-12.6,12.6c-0.2,0.2-0.4,0.4-0.6,0.5
			c1.5,2.9,2.8,5.9,3.8,9.1c0.3,0,0.5-0.1,0.8-0.1h17.8c2.9,0,5.2,2.3,5.2,5.2v23.7c0,2.9-2.3,5.2-5.2,5.2h-17.8
			c-0.3,0-0.5,0-0.8-0.1c-1,3.2-2.3,6.2-3.8,9.1c0.2,0.2,0.4,0.3,0.6,0.5l12.6,12.6c2,2,2,5.3,0,7.4l-16.8,16.8c-2,2-5.3,2-7.4,0
			l-12.6-12.6c-0.2-0.2-0.4-0.4-0.5-0.6c-2.9,1.5-5.9,2.8-9.1,3.8c0,0.3,0.1,0.5,0.1,0.8v17.8c0,2.9-2.3,5.2-5.2,5.2H500v6.1
			c46.3,0,83.8-37.5,83.8-83.8S546.3,416.2,500,416.2z"/>
	</g>
</g>
<g id="modSys" class="st0">
	<g class="st1">
		<path class="st5" d="M661.2,270.2H297.9c-6.6,0-12-5.4-12-12v-91.5c0-6.6,5.4-12,12-12h363.3c6.6,0,12,5.4,12,12v91.5
			C673.2,264.8,667.8,270.2,661.2,270.2z"/>
		<line class="st6" x1="714.1" y1="212.4" x2="714.1" y2="305.2"/>
		<line class="st6" x1="500.5" y1="405.2" x2="714.1" y2="305.2"/>
		<g>
			<path class="st5" d="M539.4,845.4h-78c-6.6,0-12-5.4-12-12V482.3c0-6.6,5.4-12,12-12h78c6.6,0,12,5.4,12,12v351.1
				C551.4,840,546,845.4,539.4,845.4z"/>
			<line class="st6" x1="500.4" y1="406.9" x2="500.4" y2="463.6"/>
		</g>
		<line class="st6" x1="673.2" y1="212.4" x2="714.1" y2="212.4"/>
		<g>
			<path class="st5" d="M350.5,198.5c0-7.3,14.4-13.2,32.3-13.2s32.3,5.9,32.3,13.2"/>
			<path class="st5" d="M479.6,198.5c0,7.3-14.4,13.2-32.3,13.2s-32.3-5.9-32.3-13.2"/>
			<path class="st5" d="M350.5,198.5c0,7.3-14.4,13.2-32.3,13.2s-32.3-5.9-32.3-13.2"/>
			<path class="st5" d="M479.6,198.5c0-7.3,14.4-13.2,32.3-13.2s32.3,5.9,32.3,13.2"/>
			<path class="st5" d="M608.7,198.5c0,7.3-14.4,13.2-32.3,13.2s-32.3-5.9-32.3-13.2"/>
			<path class="st5" d="M608.7,198.5c0-7.3,14.4-13.2,32.3-13.2c17.8,0,32.3,5.9,32.3,13.2"/>
		</g>
	</g>
</g>
<g id="modSys_2" class="st0">
	<g class="st1">
		<g>
			<path class="st4" d="M840,900H578.3c-33.8,0-61.3-27.5-61.3-61.3V577c0-33.8,27.5-61.3,61.3-61.3H840c33.8,0,61.3,27.5,61.3,61.3
				v261.7C901.3,872.5,873.8,900,840,900z M578.3,571.5c-3,0-5.6,2.6-5.6,5.6v261.7c0,3,2.6,5.6,5.6,5.6H840c3,0,5.6-2.6,5.6-5.6
				V577c0-3-2.6-5.6-5.6-5.6H578.3z"/>
		</g>
		<g>
			<path class="st4" d="M709.2,484.2c-105.9,0-192.1-86.2-192.1-192.1S603.2,100,709.2,100s192.1,86.2,192.1,192.1
				S815.1,484.2,709.2,484.2z M709.2,155.7c-75.2,0-136.4,61.2-136.4,136.4s61.2,136.4,136.4,136.4s136.4-61.2,136.4-136.4
				S784.4,155.7,709.2,155.7z"/>
		</g>
		<path class="st4" d="M421.7,100H160c-33.8,0-61.3,27.5-61.3,61.3V423c0,33.8,27.5,61.3,61.3,61.3h261.7
			c33.8,0,61.3-27.5,61.3-61.3V161.3C482.9,127.5,455.5,100,421.7,100z M160,155.7h261.7c3.1,0,5.6,2.5,5.6,5.6v33.9
			c0,1.5-1.2,2.8-2.8,2.8H157.2c-1.5,0-2.8-1.2-2.8-2.8v-33.9C154.4,158.2,156.9,155.7,160,155.7z M421.7,428.5H160
			c-3.1,0-5.6-2.5-5.6-5.6V228.5c0-1.5,1.2-2.8,2.8-2.8h267.3c1.5,0,2.8,1.2,2.8,2.8V423C427.3,426,424.8,428.5,421.7,428.5z"/>
		<g>
			<path class="st4" d="M788.2,666.9c-23,0-41.7-18.7-41.7-41.7c0-23,18.7-41.7,41.7-41.7c23,0,41.7,18.7,41.7,41.7
				C829.9,648.2,811.2,666.9,788.2,666.9z M788.2,611.4c-7.6,0-13.9,6.2-13.9,13.9s6.2,13.9,13.9,13.9c7.6,0,13.9-6.2,13.9-13.9
				S795.9,611.4,788.2,611.4z"/>
		</g>
		<path class="st4" d="M421.7,515.8H160c-33.8,0-61.3,27.5-61.3,61.3v261.7c0,33.8,27.5,61.3,61.3,61.3h261.7
			c33.8,0,61.3-27.5,61.3-61.3V577C482.9,543.3,455.5,515.8,421.7,515.8z M427.3,577v21.5c0,2.5-3,3.7-4.8,2l-24.3-24.3
			c-1.8-1.8-0.5-4.8,2-4.8h21.5C424.8,571.5,427.3,574,427.3,577z M421.7,844.3H160c-3.1,0-5.6-2.5-5.6-5.6V577
			c0-3.1,2.5-5.6,5.6-5.6h193c0.7,0,1.4,0.3,2,0.8l71.5,71.5c0.5,0.5,0.8,1.2,0.8,2v193C427.3,841.8,424.8,844.3,421.7,844.3z"/>
	</g>
</g>
<g id="modDes">
	<g>
		<g>
			<path class="st4" d="M561.2,710.3H438.8c-1.1,0-2-0.9-2-2v-32.7c0-1.1,0.9-2,2-2h122.5c1.1,0,2,0.9,2,2v32.7
				C563.2,709.4,562.4,710.3,561.2,710.3z"/>
			<path class="st4" d="M536.2,299h-23.4c-2,0-3.7,1.6-3.7,3.7v195.1c0,1.3,0.7,2.6,1.9,3.2c11.6,6.3,17.2,22.1,6.3,36.9
				c-0.2,0.3-0.5,0.6-0.9,0.9c-19,14-39.8,0.7-39.8-17.4c0-8.8,4.9-16.5,12.2-20.4c1.2-0.6,1.9-1.9,1.9-3.2V302.7
				c0-2-1.6-3.7-3.7-3.7h-23.4c-1.6,0-3.1,1.1-3.5,2.7l-76.4,273.2c-0.3,1.2,0,2.5,0.8,3.4l68.5,75.7c0.7,0.8,1.7,1.2,2.7,1.2H500
				h44.2c1,0,2-0.4,2.7-1.2l68.5-75.7c0.8-0.9,1.2-2.2,0.8-3.4l-76.4-273.2C539.3,300.1,537.9,299,536.2,299z"/>
		</g>
		<path class="st4" d="M784.5,230.1C718,161.3,631.1,119.8,537.3,111.1c-2.6-0.2-4.7,2.3-3.8,4.8c1.3,3.7,2,7.7,2,11.8
			c0,5.3-1.2,10.3-3.3,14.9c-1.1,2.3,0.4,5,3,5.2c182.4,17.9,325.1,172.9,323.4,360.3c-1.8,195.6-161.9,354.7-357.6,355.2
			c-198.3,0.6-359.7-160.5-359.7-358.7c0-185.9,142.1-339.2,323.4-356.9c2.5-0.2,4-2.9,3-5.2c-2.1-4.5-3.3-9.6-3.3-14.9
			c0-4.1,0.7-8.1,2-11.8c0.9-2.5-1.2-5-3.8-4.8c-89.5,8.3-172.7,46.5-237.8,109.7c-76.2,73.9-119.7,175.8-120.2,281.9
			c-0.5,111.3,44.6,215.7,126.6,291.9C304.8,862.9,402,900.6,502.3,900c104.7-0.6,203.1-41.7,277.2-115.8
			c74-74,115-172.1,115.8-276.6C896.1,404.3,856.2,304.4,784.5,230.1z"/>
		<circle class="st4" cx="500" cy="127.2" r="27.2"/>
	</g>
</g>
<g id="justFY" class="st0">
</g>
<g id="beepBoop" class="st0">
</g>
</svg>
