<?xml version="1.0" encoding="utf-8"?>
<!-- Generator: Adobe Illustrator 21.1.0, SVG Export Plug-In . SVG Version: 6.00 Build 0)  -->
<svg version="1.1" xmlns="http://www.w3.org/2000/svg" xmlns:xlink="http://www.w3.org/1999/xlink" x="0px" y="0px"
	 viewBox="0 0 1000 1000" style="enable-background:new 0 0 1000 1000;" xml:space="preserve">
<style type="text/css">
	.st0{display:none;}
	.st1{display:inline;}
	.st2{fill:#29ABE2;}
	.st3{fill:#B3B3B3;}
	.st4{fill:#FFFFFF;}
	.st5{fill:none;stroke:#FFFFFF;stroke-width:20;stroke-miterlimit:10;}
	.st6{fill:none;stroke:#FFFFFF;stroke-width:20;stroke-linecap:round;stroke-miterlimit:10;}
</style>
<g id="Layer_1" class="st0">
	<g class="st1">
		<rect x="50" y="50" class="st2" width="900" height="900"/>
		<path class="st3" d="M900,100v800H100V100H900 M1000,0H0v1000h1000V0L1000,0z"/>
	</g>
</g>
<g id="busNavi" class="st0">
	<g class="st1">
		<g>
			<path class="st4" d="M176.9,576.8c-42.3,0-76.8-34.4-76.8-76.8s34.4-76.8,76.8-76.8s76.8,34.4,76.8,76.8S219.2,576.8,176.9,576.8
				z M176.9,455.6c-24.5,0-44.4,19.9-44.4,44.4c0,24.5,19.9,44.4,44.4,44.4s44.4-19.9,44.4-44.4
				C221.3,475.5,201.4,455.6,176.9,455.6z"/>
		</g>
		<g>
			<path class="st4" d="M823.2,576.8c-42.3,0-76.8-34.4-76.8-76.8s34.4-76.8,76.8-76.8c42.3,0,76.8,34.4,76.8,76.8
				S865.6,576.8,823.2,576.8z M823.2,455.6c-24.5,0-44.4,19.9-44.4,44.4c0,24.5,19.9,44.4,44.4,44.4c24.5,0,44.4-19.9,44.4-44.4
				C867.7,475.5,847.7,455.6,823.2,455.6z"/>
		</g>
		<g>
			<path class="st4" d="M500,253.5c-42.3,0-76.8-34.4-76.8-76.8S457.6,100,500,100s76.8,34.4,76.8,76.8S542.3,253.5,500,253.5z
				 M500,132.3c-24.5,0-44.4,19.9-44.4,44.4s19.9,44.4,44.4,44.4c24.5,0,44.4-19.9,44.4-44.4S524.5,132.3,500,132.3z"/>
		</g>
		<g>
			<path class="st4" d="M500,899.9c-42.3,0-76.8-34.4-76.8-76.8c0-42.3,34.4-76.8,76.8-76.8s76.8,34.4,76.8,76.8
				C576.7,865.5,542.3,899.9,500,899.9z M500,778.7c-24.5,0-44.4,19.9-44.4,44.4c0,24.5,19.9,44.4,44.4,44.4
				c24.5,0,44.4-19.9,44.4-44.4C544.4,798.7,524.5,778.7,500,778.7z"/>
		</g>
		<g>
			
				<rect x="122.4" y="291.9" transform="matrix(0.7069 -0.7073 0.7073 0.7069 -127.6088 308.212)" class="st4" width="371.3" height="32.3"/>
		</g>
		<g>
			
				<rect x="292" y="506.3" transform="matrix(0.7072 -0.7071 0.7071 0.7072 -398.9832 420.4756)" class="st4" width="32.3" height="371.3"/>
		</g>
		<path class="st4" d="M500.9,389.7c-42.4,0-76.8,34.4-76.8,76.8c0,42.4,76.8,145.6,76.8,145.6s76.8-103.2,76.8-145.6
			C577.7,424,543.4,389.7,500.9,389.7z M500.9,512.2c-25.7,0-46.5-20.8-46.5-46.5s20.8-46.5,46.5-46.5c25.7,0,46.5,20.8,46.5,46.5
			S526.6,512.2,500.9,512.2z"/>
		<g>
			
				<rect x="506.2" y="675.7" transform="matrix(0.7073 -0.707 0.707 0.7073 -286.5916 691.6984)" class="st4" width="371.4" height="32.3"/>
		</g>
		<g>
			
				<rect x="675.7" y="122.4" transform="matrix(0.7071 -0.7071 0.7071 0.7071 -15.1995 579.4868)" class="st4" width="32.3" height="371.4"/>
		</g>
	</g>
</g>
<g id="uniInte" class="st0">
	<g class="st1">
		<circle class="st5" cx="500" cy="500" r="87.9"/>
		<line class="st6" x1="500" y1="327.4" x2="500" y2="375.7"/>
		<line class="st6" x1="500" y1="672.6" x2="500" y2="624.3"/>
		<line class="st6" x1="378" y1="622" x2="412.1" y2="587.9"/>
		<line class="st6" x1="378" y1="378" x2="412.1" y2="412.1"/>
		<line class="st6" x1="622" y1="378" x2="587.9" y2="412.1"/>
		<line class="st6" x1="672.6" y1="500" x2="624.3" y2="500"/>
		<line class="st6" x1="327.4" y1="500" x2="375.7" y2="500"/>
		<line class="st6" x1="622" y1="622" x2="587.9" y2="587.9"/>
	</g>
	<g class="st1">
		<path class="st4" d="M522.6,500c0-12.5-10.1-22.6-22.6-22.6v45.1C512.5,522.6,522.6,512.5,522.6,500z"/>
		<path class="st4" d="M500,416.2v6.1h11.8c2.9,0,5.2,2.3,5.2,5.2v17.8c0,0.3,0,0.5-0.1,0.8c3.2,1,6.2,2.3,9.1,3.8
			c0.2-0.2,0.3-0.4,0.5-0.6l12.6-12.6c2-2,5.3-2,7.4,0l16.8,16.8c2,2,2,5.3,0,7.4l-12.6,12.6c-0.2,0.2-0.4,0.4-0.6,0.5
			c1.5,2.9,2.8,5.9,3.8,9.1c0.3,0,0.5-0.1,0.8-0.1h17.8c2.9,0,5.2,2.3,5.2,5.2v23.7c0,2.9-2.3,5.2-5.2,5.2h-17.8
			c-0.3,0-0.5,0-0.8-0.1c-1,3.2-2.3,6.2-3.8,9.1c0.2,0.2,0.4,0.3,0.6,0.5l12.6,12.6c2,2,2,5.3,0,7.4l-16.8,16.8c-2,2-5.3,2-7.4,0
			l-12.6-12.6c-0.2-0.2-0.4-0.4-0.5-0.6c-2.9,1.5-5.9,2.8-9.1,3.8c0,0.3,0.1,0.5,0.1,0.8v17.8c0,2.9-2.3,5.2-5.2,5.2H500v6.1
			c46.3,0,83.8-37.5,83.8-83.8S546.3,416.2,500,416.2z"/>
	</g>
</g>
<g id="modSys" class="st0">
	<g class="st1">
		<path class="st5" d="M661.2,270.2H297.9c-6.6,0-12-5.4-12-12v-91.5c0-6.6,5.4-12,12-12h363.3c6.6,0,12,5.4,12,12v91.5
			C673.2,264.8,667.8,270.2,661.2,270.2z"/>
		<line class="st6" x1="714.1" y1="212.4" x2="714.1" y2="305.2"/>
		<line class="st6" x1="500.5" y1="405.2" x2="714.1" y2="305.2"/>
		<g>
			<path class="st5" d="M539.4,845.4h-78c-6.6,0-12-5.4-12-12V482.3c0-6.6,5.4-12,12-12h78c6.6,0,12,5.4,12,12v351.1
				C551.4,840,546,845.4,539.4,845.4z"/>
			<line class="st6" x1="500.4" y1="406.9" x2="500.4" y2="463.6"/>
		</g>
		<line class="st6" x1="673.2" y1="212.4" x2="714.1" y2="212.4"/>
		<g>
			<path class="st5" d="M350.5,198.5c0-7.3,14.4-13.2,32.3-13.2s32.3,5.9,32.3,13.2"/>
			<path class="st5" d="M479.6,198.5c0,7.3-14.4,13.2-32.3,13.2s-32.3-5.9-32.3-13.2"/>
			<path class="st5" d="M350.5,198.5c0,7.3-14.4,13.2-32.3,13.2s-32.3-5.9-32.3-13.2"/>
			<path class="st5" d="M479.6,198.5c0-7.3,14.4-13.2,32.3-13.2s32.3,5.9,32.3,13.2"/>
			<path class="st5" d="M608.7,198.5c0,7.3-14.4,13.2-32.3,13.2s-32.3-5.9-32.3-13.2"/>
			<path class="st5" d="M608.7,198.5c0-7.3,14.4-13.2,32.3-13.2c17.8,0,32.3,5.9,32.3,13.2"/>
		</g>
	</g>
</g>
<g id="modSys_2">
	<g>
		<path class="st4" d="M442.8,474.5H130.4c-16.8,0-30.4-13.6-30.4-30.4V131.7c0-16.8,13.6-30.4,30.4-30.4h312.4
			c16.8,0,30.4,13.6,30.4,30.4v312.4C473.2,460.9,459.6,474.5,442.8,474.5z M138,436.5h297.2V139.3H138V436.5z"/>
	</g>
	<g>
		<path class="st4" d="M869.6,898.7H557.2c-16.7,0-30.4-13.6-30.4-30.4V555.9c0-16.7,13.6-30.4,30.4-30.4h312.4
			c16.7,0,30.4,13.6,30.4,30.4v312.4C900,885.1,886.4,898.7,869.6,898.7z M564.8,860.7H862V563.5H564.8V860.7z"/>
	</g>
	<g>
		<path class="st4" d="M713.4,474.5c-102.9,0-186.6-83.7-186.6-186.6s83.7-186.6,186.6-186.6S900,185,900,287.9
			S816.3,474.5,713.4,474.5z M713.4,139.3c-81.9,0-148.6,66.7-148.6,148.6s66.7,148.6,148.6,148.6S862,369.8,862,287.9
			S795.4,139.3,713.4,139.3z"/>
	</g>
	<g>
		<rect x="119" y="178.8" class="st4" width="335.2" height="19"/>
	</g>
	<g>
		<path class="st4" d="M442.8,898.7H130.4c-16.8,0-30.4-13.6-30.4-30.4V555.9c0-16.7,13.6-30.4,30.4-30.4h312.4
			c16.8,0,30.4,13.6,30.4,30.4v312.4C473.2,885.1,459.6,898.7,442.8,898.7z M138,860.7h297.2V563.5H138V860.7z"/>
	</g>
	<g>
		<path class="st4" d="M805.8,659.4c-20.9,0-37.8-17-37.8-37.8s17-37.8,37.8-37.8c20.9,0,37.8,17,37.8,37.8S826.7,659.4,805.8,659.4
			z M805.8,602.7c-10.4,0-18.9,8.5-18.9,18.9s8.5,18.9,18.9,18.9c10.4,0,18.9-8.5,18.9-18.9S816.2,602.7,805.8,602.7z"/>
	</g>
	<g>
		
			<rect x="398" y="525.2" transform="matrix(0.7071 -0.7071 0.7071 0.7071 -298.6754 461.3066)" class="st4" width="19" height="132"/>
	</g>
</g>
<g id="modDes">
</g>
<g id="justFY" class="st0">
</g>
<g id="beepBoop" class="st0">
</g>
</svg>
