<?xml version="1.0" encoding="utf-8"?>
<!-- Generator: Adobe Illustrator 21.1.0, SVG Export Plug-In . SVG Version: 6.00 Build 0)  -->
<svg version="1.1" id="android" xmlns="http://www.w3.org/2000/svg" xmlns:xlink="http://www.w3.org/1999/xlink" x="0px" y="0px"
	 viewBox="0 0 500 750" style="enable-background:new 0 0 500 750;" xml:space="preserve">
<style type="text/css">
	
		.st0{fill:#4D4D4D;stroke:#333333;stroke-width:6;stroke-linecap:round;stroke-miterlimit:10;stroke-dasharray:550,20,800,10,200,30;}
	.st1{fill:#29ABE2;}
	.st2{fill:#333333;}
	.st3{fill:#FFFFFF;}
</style>
<path class="st0" d="M424.6,740H75.4c-5.5,0-10-4.5-10-10V20c0-5.5,4.5-10,10-10h349.1c5.5,0,10,4.5,10,10v710
	C434.6,735.5,430.1,740,424.6,740z"/>
<g>
	<path class="st1" d="M89.2,635.8c-3.9,0-7-3.1-7-7V94.9c0-3.9,3.1-7,7-7h321.5c3.9,0,7,3.1,7,7v533.9c0,3.9-3.1,7-7,7H89.2z"/>
	<path class="st2" d="M410.8,90.9c2.2,0,4,1.8,4,4v533.9c0,2.2-1.8,4-4,4H89.2c-2.2,0-4-1.8-4-4V94.9c0-2.2,1.8-4,4-4H410.8
		 M410.8,84.9H89.2c-5.5,0-10,4.5-10,10v533.9c0,5.5,4.5,10,10,10h321.5c5.5,0,10-4.5,10-10V94.9C420.8,89.4,416.3,84.9,410.8,84.9
		L410.8,84.9z"/>
</g>
<g>
	<path class="st3" d="M181,702.7c-4.2,0-7.7-3.4-7.7-7.7v-1.4c0-4.2,3.4-7.7,7.7-7.7H319c4.2,0,7.7,3.4,7.7,7.7v1.4
		c0,4.2-3.4,7.7-7.7,7.7H181z"/>
	<path class="st2" d="M319,689c2.6,0,4.7,2.1,4.7,4.7v1.4c0,2.6-2.1,4.7-4.7,4.7H181c-2.6,0-4.7-2.1-4.7-4.7v-1.4
		c0-2.6,2.1-4.7,4.7-4.7H319 M319,683H181c-5.9,0-10.7,4.8-10.7,10.7v1.4c0,5.9,4.8,10.7,10.7,10.7H319c5.9,0,10.7-4.8,10.7-10.7
		v-1.4C329.6,687.8,324.9,683,319,683L319,683z"/>
</g>
<g>
	<path class="st3" d="M181,58.2c-4.2,0-7.7-3.4-7.7-7.7v-1.4c0-4.2,3.4-7.7,7.7-7.7H319c4.2,0,7.7,3.4,7.7,7.7v1.4
		c0,4.2-3.4,7.7-7.7,7.7H181z"/>
	<path class="st2" d="M319,44.5c2.6,0,4.7,2.1,4.7,4.7v1.4c0,2.6-2.1,4.7-4.7,4.7H181c-2.6,0-4.7-2.1-4.7-4.7v-1.4
		c0-2.6,2.1-4.7,4.7-4.7H319 M319,38.5H181c-5.9,0-10.7,4.8-10.7,10.7v1.4c0,5.9,4.8,10.7,10.7,10.7H319c5.9,0,10.7-4.8,10.7-10.7
		v-1.4C329.6,43.3,324.9,38.5,319,38.5L319,38.5z"/>
</g>
<g>
	<path class="st3" d="M133.8,60.2c-5.7,0-10.3-4.6-10.3-10.3s4.6-10.3,10.3-10.3s10.3,4.6,10.3,10.3S139.5,60.2,133.8,60.2z"/>
	<path class="st2" d="M133.8,42.6c4,0,7.3,3.3,7.3,7.3s-3.3,7.3-7.3,7.3s-7.3-3.3-7.3-7.3S129.7,42.6,133.8,42.6 M133.8,36.6
		c-7.3,0-13.3,6-13.3,13.3s6,13.3,13.3,13.3s13.3-6,13.3-13.3S141.1,36.6,133.8,36.6L133.8,36.6z"/>
</g>
</svg>
