<?xml version="1.0" encoding="utf-8"?>
<!-- Generator: Adobe Illustrator 21.1.0, SVG Export Plug-In . SVG Version: 6.00 Build 0)  -->
<svg version="1.1" id="iphone" xmlns="http://www.w3.org/2000/svg" xmlns:xlink="http://www.w3.org/1999/xlink" x="0px" y="0px"
	 viewBox="0 0 500 750" style="enable-background:new 0 0 500 750;" xml:space="preserve">
<style type="text/css">
	.st0{fill:#4D4D4D;}
	
		.st1{fill:none;stroke:#333333;stroke-width:6;stroke-linecap:round;stroke-miterlimit:10;stroke-dasharray:728.0026,26.4728,1058.9128,13.2364,264.7282,39.7092;}
	.st2{fill:#29ABE2;}
	.st3{fill:#333333;}
	.st4{fill:#FFFFFF;}
</style>
<g>
	<path class="st0" d="M394.7,740.2H105.3c-22.1,0-40-17.9-40-40V49.8c0-22.1,17.9-40,40-40h289.4c22.1,0,40,17.9,40,40v650.5
		C434.7,722.3,416.8,740.2,394.7,740.2z"/>
	<path class="st1" d="M394.7,740.2H105.3c-22.1,0-40-17.9-40-40V49.8c0-22.1,17.9-40,40-40h289.4c22.1,0,40,17.9,40,40v650.5
		C434.7,722.3,416.8,740.2,394.7,740.2z"/>
</g>
<g>
	<path class="st2" d="M99.3,639.1c-3.9,0-7-3.1-7-7v-517c0-3.9,3.1-7,7-7h301.4c3.9,0,7,3.1,7,7v517c0,3.9-3.1,7-7,7H99.3z"/>
	<path class="st3" d="M400.7,111.1c2.2,0,4,1.8,4,4v517c0,2.2-1.8,4-4,4H99.3c-2.2,0-4-1.8-4-4v-517c0-2.2,1.8-4,4-4H400.7
		 M400.7,105.1H99.3c-5.5,0-10,4.5-10,10v517c0,5.5,4.5,10,10,10h301.4c5.5,0,10-4.5,10-10v-517
		C410.7,109.6,406.2,105.1,400.7,105.1L400.7,105.1z"/>
</g>
<g>
	<path class="st4" d="M160.2,81.9c-5.4,0-9.8-4.3-9.8-9.6s4.4-9.6,9.8-9.6s9.8,4.3,9.8,9.6S165.6,81.9,160.2,81.9z"/>
	<path class="st3" d="M160.2,65.8c3.7,0,6.8,2.9,6.8,6.6c0,3.6-3,6.6-6.8,6.6s-6.8-2.9-6.8-6.6C153.4,68.7,156.5,65.8,160.2,65.8
		 M160.2,59.8c-7,0-12.8,5.6-12.8,12.6s5.7,12.6,12.8,12.6S173,79.3,173,72.4S167.3,59.8,160.2,59.8L160.2,59.8z"/>
</g>
<g>
	<path class="st4" d="M197,79.8c-2.7,0-4.9-2.2-4.9-4.9v-0.6c0-2.7,2.2-4.9,4.9-4.9h106c2.7,0,4.9,2.2,4.9,4.9v0.6
		c0,2.7-2.2,4.9-4.9,4.9H197z"/>
	<path class="st3" d="M303,72.4c1.1,0,1.9,0.9,1.9,1.9v0.6c0,1.1-0.9,1.9-1.9,1.9H197c-1.1,0-1.9-0.9-1.9-1.9v-0.6
		c0-1.1,0.9-1.9,1.9-1.9H303 M303,66.4H197c-4.4,0-7.9,3.5-7.9,7.9v0.6c0,4.4,3.5,7.9,7.9,7.9h106c4.4,0,7.9-3.5,7.9-7.9v-0.6
		C310.9,69.9,307.4,66.4,303,66.4L303,66.4z"/>
</g>
<g>
	<ellipse class="st4" cx="250" cy="49.4" rx="3" ry="3"/>
	<path class="st3" d="M250,40.4c-5,0-9,4-9,9s4.1,9,9,9s9-4,9-9S255,40.4,250,40.4L250,40.4L250,40.4z M247,49.4c0-1.6,1.4-3,3-3
		l0,0c1.7,0,3,1.3,3,3l0,0l0,0c0,1.6-1.4,3-3,3S247,51,247,49.4L247,49.4L247,49.4z"/>
</g>
<g>
	<path class="st4" d="M250,713c-14.4,0-26-11.7-26-26s11.7-26,26-26c14.4,0,26,11.7,26,26S264.4,713,250,713z"/>
	<path class="st3" d="M250,664c12.7,0,23,10.3,23,23s-10.3,23-23,23s-23-10.3-23-23S237.3,664,250,664 M250,658c-16,0-29,13-29,29
		s13,29,29,29s29-13,29-29S266,658,250,658L250,658z"/>
</g>
</svg>
