<?xml version="1.0" encoding="utf-8"?>
<!-- Generator: Adobe Illustrator 21.1.0, SVG Export Plug-In . SVG Version: 6.00 Build 0)  -->
<svg version="1.1" xmlns="http://www.w3.org/2000/svg" xmlns:xlink="http://www.w3.org/1999/xlink" x="0px" y="0px"
	 viewBox="0 0 1000 1000" style="enable-background:new 0 0 1000 1000;" xml:space="preserve">
<style type="text/css">
	.st0{display:none;}
	.st1{display:inline;}
	.st2{fill:#29ABE2;}
	.st3{fill:#B3B3B3;}
	.st4{fill:#FFFFFF;}
	.st5{fill:none;stroke:#FFFFFF;stroke-width:40;stroke-miterlimit:10;}
	.st6{fill:none;stroke:#FFFFFF;stroke-width:40;stroke-linecap:round;stroke-miterlimit:10;}
</style>
<g id="Layer_1" class="st0">
	<g class="st1">
		<rect x="50" y="50" class="st2" width="900" height="900"/>
		<path class="st3" d="M900,100v800H100V100H900 M1000,0H0v1000h1000V0L1000,0z"/>
	</g>
</g>
<g id="busNavi" class="st0">
	<g class="st1">
		<g>
			<path class="st4" d="M176.9,576.8c-42.3,0-76.8-34.4-76.8-76.8s34.4-76.8,76.8-76.8s76.8,34.4,76.8,76.8S219.2,576.8,176.9,576.8
				z M176.9,455.6c-24.5,0-44.4,19.9-44.4,44.4c0,24.5,19.9,44.4,44.4,44.4s44.4-19.9,44.4-44.4
				C221.3,475.5,201.4,455.6,176.9,455.6z"/>
		</g>
		<g>
			<path class="st4" d="M823.2,576.8c-42.3,0-76.8-34.4-76.8-76.8s34.4-76.8,76.8-76.8c42.3,0,76.8,34.4,76.8,76.8
				S865.6,576.8,823.2,576.8z M823.2,455.6c-24.5,0-44.4,19.9-44.4,44.4c0,24.5,19.9,44.4,44.4,44.4c24.5,0,44.4-19.9,44.4-44.4
				C867.7,475.5,847.7,455.6,823.2,455.6z"/>
		</g>
		<g>
			<path class="st4" d="M500,253.5c-42.3,0-76.8-34.4-76.8-76.8S457.6,100,500,100s76.8,34.4,76.8,76.8S542.3,253.5,500,253.5z
				 M500,132.3c-24.5,0-44.4,19.9-44.4,44.4s19.9,44.4,44.4,44.4c24.5,0,44.4-19.9,44.4-44.4S524.5,132.3,500,132.3z"/>
		</g>
		<g>
			<path class="st4" d="M500,899.9c-42.3,0-76.8-34.4-76.8-76.8c0-42.3,34.4-76.8,76.8-76.8s76.8,34.4,76.8,76.8
				C576.7,865.5,542.3,899.9,500,899.9z M500,778.7c-24.5,0-44.4,19.9-44.4,44.4c0,24.5,19.9,44.4,44.4,44.4
				c24.5,0,44.4-19.9,44.4-44.4C544.4,798.7,524.5,778.7,500,778.7z"/>
		</g>
		<g>
			
				<rect x="122.4" y="291.9" transform="matrix(0.7069 -0.7073 0.7073 0.7069 -127.6088 308.212)" class="st4" width="371.3" height="32.3"/>
		</g>
		<g>
			
				<rect x="292" y="506.3" transform="matrix(0.7072 -0.7071 0.7071 0.7072 -398.9832 420.4756)" class="st4" width="32.3" height="371.3"/>
		</g>
		<path class="st4" d="M500.9,389.7c-42.4,0-76.8,34.4-76.8,76.8c0,42.4,76.8,145.6,76.8,145.6s76.8-103.2,76.8-145.6
			C577.7,424,543.4,389.7,500.9,389.7z M500.9,512.2c-25.7,0-46.5-20.8-46.5-46.5s20.8-46.5,46.5-46.5c25.7,0,46.5,20.8,46.5,46.5
			S526.6,512.2,500.9,512.2z"/>
		<g>
			
				<rect x="506.2" y="675.7" transform="matrix(0.7073 -0.707 0.707 0.7073 -286.5916 691.6984)" class="st4" width="371.4" height="32.3"/>
		</g>
		<g>
			
				<rect x="675.7" y="122.4" transform="matrix(0.7071 -0.7071 0.7071 0.7071 -15.1995 579.4868)" class="st4" width="32.3" height="371.4"/>
		</g>
	</g>
</g>
<g id="uniInte">
	<circle class="st5" cx="500" cy="500" r="193.3"/>
	<line class="st6" x1="500" y1="120.4" x2="500" y2="226.6"/>
	<line class="st6" x1="500" y1="879.6" x2="500" y2="773.4"/>
	<line class="st6" x1="231.6" y1="768.4" x2="306.7" y2="693.3"/>
	<line class="st6" x1="231.6" y1="231.6" x2="306.7" y2="306.7"/>
	<line class="st6" x1="768.4" y1="231.6" x2="693.3" y2="306.7"/>
	<line class="st6" x1="879.6" y1="500" x2="773.4" y2="500"/>
	<line class="st6" x1="120.4" y1="500" x2="226.6" y2="500"/>
	<line class="st6" x1="768.4" y1="768.4" x2="693.3" y2="693.3"/>
	<g>
		<path class="st4" d="M548.6,500c0-28-22.7-50.7-50.7-50.7v101.5C525.9,550.7,548.6,528,548.6,500z"/>
		<path class="st4" d="M497.9,311.6v13.7h26.6c6.4,0,11.7,5.3,11.7,11.7v40c0,0.6-0.1,1.2-0.1,1.7c7.2,2.2,14,5.1,20.6,8.5
			c0.4-0.5,0.7-1,1.2-1.4l28.2-28.2c4.6-4.6,12-4.6,16.6,0l37.7,37.7c4.6,4.6,4.6,12,0,16.6L612,440.1c-0.4,0.4-0.9,0.8-1.4,1.2
			c3.4,6.5,6.3,13.4,8.5,20.5c0.6-0.1,1.2-0.1,1.8-0.1h40c6.4,0,11.7,5.3,11.7,11.7v53.3c0,6.4-5.3,11.7-11.7,11.7h-40
			c-0.6,0-1.2-0.1-1.7-0.1c-2.2,7.2-5.1,14-8.5,20.6c0.5,0.4,1,0.7,1.4,1.2l28.2,28.2c4.6,4.6,4.6,12,0,16.6l-37.7,37.7
			c-4.6,4.6-12,4.6-16.6,0l-28.2-28.2c-0.4-0.4-0.8-0.9-1.2-1.4c-6.5,3.4-13.4,6.3-20.5,8.5c0.1,0.6,0.1,1.2,0.1,1.8v40
			c0,6.4-5.3,11.7-11.7,11.7h-26.7v13.7c104,0,188.4-84.3,188.4-188.4S601.9,311.6,497.9,311.6z"/>
	</g>
</g>
<g id="modSys">
</g>
<g id="modDes">
</g>
<g id="justFY" class="st0">
</g>
<g id="beepBoop" class="st0">
</g>
</svg>
